<svg width="22" height="24" viewBox="0 0 22 24" fill="none" xmlns="http://www.w3.org/2000/svg">
<path d="M20.582 10.3515C20.3672 10.5869 20.1452 10.8369 19.916 11.1017C19.6868 11.3665 19.3968 11.7196 19.0459 12.1609C18.695 12.6023 18.4121 13.0436 18.1973 13.4849C17.9824 13.9262 17.875 14.3087 17.875 14.6324C17.875 15.0296 17.2054 15.3642 15.8662 15.6364C14.527 15.9085 12.9049 16.0446 11 16.0446C9.09505 16.0446 7.47298 15.9085 6.13379 15.6364C4.7946 15.3642 4.125 15.0296 4.125 14.6324C4.125 14.2058 3.93164 13.6725 3.54492 13.0326C3.1582 12.3926 2.79655 11.8777 2.45996 11.4879C2.12337 11.0981 1.79036 10.734 1.46094 10.3956C0.486979 9.42468 0 8.2478 0 6.86497C0 5.49685 0.469076 4.331 1.40723 3.36743C2.34538 2.40387 3.48047 1.92208 4.8125 1.92208C5.14193 1.92208 5.48568 1.95886 5.84375 2.03241C5.61458 2.63556 5.5 3.30491 5.5 4.04046C5.5 5.61454 5.97266 6.92382 6.91797 7.9683C6.88932 7.1739 6.875 6.33538 6.875 5.45272C6.875 4.0846 7.27604 2.91875 8.07812 1.95518C8.88021 0.991611 9.85417 0.509827 11 0.509827C12.1458 0.509827 13.1198 0.991611 13.9219 1.95518C14.724 2.91875 15.125 4.0846 15.125 5.45272C15.125 6.35009 15.1107 7.18861 15.082 7.9683C16.0273 6.92382 16.5 5.61454 16.5 4.04046C16.5 3.30491 16.3854 2.63556 16.1562 2.03241C16.5143 1.95886 16.8581 1.92208 17.1875 1.92208C18.5195 1.92208 19.6546 2.40387 20.5928 3.36743C21.5309 4.331 22 5.49685 22 6.86497C22 8.23309 21.5273 9.39526 20.582 10.3515ZM10.9893 17.4569C12.887 17.4569 14.5091 17.3171 15.8555 17.0376C17.2018 16.7581 17.875 16.4271 17.875 16.0446V21.6936C17.875 22.0761 17.2018 22.4071 15.8555 22.6866C14.5091 22.9661 12.887 23.1059 10.9893 23.1059C9.09147 23.1059 7.47298 22.9661 6.13379 22.6866C4.7946 22.4071 4.125 22.0761 4.125 21.6936V16.0446C4.125 16.4418 4.7946 16.7765 6.13379 17.0486C7.47298 17.3208 9.09147 17.4569 10.9893 17.4569Z" fill="black"/>
</svg>
