<svg width="116" height="116" viewBox="0 0 116 116" fill="none" xmlns="http://www.w3.org/2000/svg">
<path d="M58 0C46.5287 0 35.315 3.40164 25.7769 9.77476C16.2389 16.1479 8.80489 25.2062 4.41501 35.8043C0.0251305 46.4025 -1.12346 58.0643 1.11448 69.3152C3.35242 80.5661 8.87639 90.9007 16.9878 99.0122C25.0993 107.124 35.4339 112.648 46.6848 114.886C57.9357 117.123 69.5975 115.975 80.1956 111.585C90.7938 107.195 99.8521 99.7611 106.225 90.223C112.598 80.685 116 69.4713 116 58C116 50.3833 114.5 42.8412 111.585 35.8043C108.67 28.7675 104.398 22.3736 99.0122 16.9878C93.6264 11.602 87.2325 7.32976 80.1956 4.41499C73.1588 1.50021 65.6167 0 58 0ZM81.2 63.8H58C56.4618 63.8 54.9865 63.1889 53.8988 62.1012C52.8111 61.0135 52.2 59.5382 52.2 58V34.8C52.2 33.2617 52.8111 31.7865 53.8988 30.6988C54.9865 29.6111 56.4618 29 58 29C59.5383 29 61.0135 29.6111 62.1012 30.6988C63.1889 31.7865 63.8 33.2617 63.8 34.8V52.2H81.2C82.7383 52.2 84.2135 52.8111 85.3012 53.8988C86.3889 54.9865 87 56.4617 87 58C87 59.5382 86.3889 61.0135 85.3012 62.1012C84.2135 63.1889 82.7383 63.8 81.2 63.8Z" fill="grey"/>
</svg>
