<svg width="24" height="25" viewBox="0 0 24 25" fill="none" xmlns="http://www.w3.org/2000/svg">
<path d="M1.92549 23.7211L1.91932 23.7209C1.91129 23.7207 1.89713 23.72 1.87774 23.7186C1.83879 23.7158 1.77977 23.7098 1.70759 23.6974C1.56091 23.6723 1.3727 23.623 1.19032 23.5294C1.01018 23.4368 0.843271 23.3052 0.719995 23.1153C0.598331 22.9279 0.5 22.6544 0.5 22.2452C0.5 21.3814 0.934264 19.5324 2.52254 17.9011C4.09533 16.2857 6.84276 14.8414 11.5429 14.8414C16.2431 14.8414 18.9905 16.2857 20.5633 17.9011C22.1516 19.5324 22.5858 21.3814 22.5858 22.2452C22.5858 22.6544 22.4875 22.9279 22.3659 23.1153C22.2426 23.3052 22.0757 23.4368 21.8955 23.5294C21.7131 23.623 21.5249 23.6723 21.3783 23.6974C21.3061 23.7098 21.2471 23.7158 21.2081 23.7186C21.1887 23.72 21.1746 23.7207 21.1665 23.7209L21.1604 23.7211L21.1611 23.7211L21.1596 23.7211H1.92623L1.92474 23.7211L1.92549 23.7211ZM15.2657 10.2805C14.276 11.297 12.9366 11.8655 11.5429 11.8655C10.1492 11.8655 8.80981 11.297 7.82013 10.2805C6.83 9.26351 6.27146 7.88145 6.27146 6.43765C6.27146 4.99385 6.83 3.61179 7.82013 2.59484C8.80981 1.57835 10.1492 1.00983 11.5429 1.00983C12.9366 1.00983 14.276 1.57835 15.2657 2.59484C16.2558 3.61179 16.8144 4.99385 16.8144 6.43765C16.8144 7.88145 16.2558 9.26351 15.2657 10.2805Z" stroke="black"/>
</svg>
